<mxfile host="app.diagrams.net" modified="2020-09-15T16:48:53.515Z" agent="5.0 (Windows NT 10.0; Win64; x64) AppleWebKit/537.36 (KHTML, like Gecko) Chrome/85.0.4183.102 Safari/537.36" etag="3hvngahhNycIFLWpsybJ" version="13.7.0" type="github">
  <diagram id="qAchSnlP9c-bitlFVA4C" name="Page-1">
    <mxGraphModel dx="1038" dy="531" grid="1" gridSize="10" guides="1" tooltips="1" connect="1" arrows="1" fold="1" page="1" pageScale="1" pageWidth="850" pageHeight="1100" math="0" shadow="0">
      <root>
        <mxCell id="0" />
        <mxCell id="1" parent="0" />
        <mxCell id="Tucrgae3YLSCqERrm-NA-1" value="" style="edgeStyle=orthogonalEdgeStyle;rounded=0;orthogonalLoop=1;jettySize=auto;html=1;" edge="1" parent="1" source="Tucrgae3YLSCqERrm-NA-2" target="Tucrgae3YLSCqERrm-NA-4">
          <mxGeometry relative="1" as="geometry" />
        </mxCell>
        <mxCell id="Tucrgae3YLSCqERrm-NA-2" value="start" style="ellipse;whiteSpace=wrap;html=1;" vertex="1" parent="1">
          <mxGeometry x="400" y="40" width="120" height="80" as="geometry" />
        </mxCell>
        <mxCell id="Tucrgae3YLSCqERrm-NA-3" value="" style="edgeStyle=orthogonalEdgeStyle;rounded=0;orthogonalLoop=1;jettySize=auto;html=1;" edge="1" parent="1" source="Tucrgae3YLSCqERrm-NA-4" target="Tucrgae3YLSCqERrm-NA-27">
          <mxGeometry relative="1" as="geometry" />
        </mxCell>
        <mxCell id="Tucrgae3YLSCqERrm-NA-4" value="Enter Starting&amp;nbsp;&lt;br&gt;balance" style="shape=parallelogram;perimeter=parallelogramPerimeter;whiteSpace=wrap;html=1;fixedSize=1;" vertex="1" parent="1">
          <mxGeometry x="400" y="150" width="120" height="60" as="geometry" />
        </mxCell>
        <mxCell id="Tucrgae3YLSCqERrm-NA-5" value="end" style="ellipse;whiteSpace=wrap;html=1;" vertex="1" parent="1">
          <mxGeometry x="400" y="790" width="120" height="80" as="geometry" />
        </mxCell>
        <mxCell id="Tucrgae3YLSCqERrm-NA-6" value="Dayton&amp;nbsp;" style="shape=umlActor;verticalLabelPosition=bottom;verticalAlign=top;html=1;outlineConnect=0;" vertex="1" parent="1">
          <mxGeometry x="160" y="70" width="110" height="310" as="geometry" />
        </mxCell>
        <mxCell id="Tucrgae3YLSCqERrm-NA-7" value="" style="whiteSpace=wrap;html=1;aspect=fixed;" vertex="1" parent="1">
          <mxGeometry x="177.5" y="150" width="82.5" height="82.5" as="geometry" />
        </mxCell>
        <mxCell id="Tucrgae3YLSCqERrm-NA-8" value="" style="whiteSpace=wrap;html=1;aspect=fixed;" vertex="1" parent="1">
          <mxGeometry x="177.5" y="225" width="82.5" height="82.5" as="geometry" />
        </mxCell>
        <mxCell id="Tucrgae3YLSCqERrm-NA-9" value="" style="rounded=0;whiteSpace=wrap;html=1;rotation=-60;" vertex="1" parent="1">
          <mxGeometry x="110" y="310" width="120" height="60" as="geometry" />
        </mxCell>
        <mxCell id="Tucrgae3YLSCqERrm-NA-10" value="" style="rounded=0;whiteSpace=wrap;html=1;rotation=60;" vertex="1" parent="1">
          <mxGeometry x="210" y="310" width="120" height="60" as="geometry" />
        </mxCell>
        <mxCell id="Tucrgae3YLSCqERrm-NA-11" value="" style="rounded=1;whiteSpace=wrap;html=1;" vertex="1" parent="1">
          <mxGeometry x="260" y="150" width="120" height="60" as="geometry" />
        </mxCell>
        <mxCell id="Tucrgae3YLSCqERrm-NA-12" value="0&amp;nbsp; &amp;nbsp; &amp;nbsp; &amp;nbsp; &amp;nbsp; &amp;nbsp; &amp;nbsp; 0&lt;br&gt;---------" style="ellipse;whiteSpace=wrap;html=1;aspect=fixed;" vertex="1" parent="1">
          <mxGeometry x="175" y="70" width="80" height="80" as="geometry" />
        </mxCell>
        <mxCell id="Tucrgae3YLSCqERrm-NA-13" value="cam" style="shape=umlActor;verticalLabelPosition=bottom;verticalAlign=top;html=1;outlineConnect=0;" vertex="1" parent="1">
          <mxGeometry x="620" y="70" width="150" height="300" as="geometry" />
        </mxCell>
        <mxCell id="Tucrgae3YLSCqERrm-NA-14" value="&lt;br&gt;____" style="ellipse;whiteSpace=wrap;html=1;aspect=fixed;" vertex="1" parent="1">
          <mxGeometry x="655" y="70" width="80" height="80" as="geometry" />
        </mxCell>
        <mxCell id="Tucrgae3YLSCqERrm-NA-15" value="" style="whiteSpace=wrap;html=1;aspect=fixed;" vertex="1" parent="1">
          <mxGeometry x="655" y="225" width="80" height="80" as="geometry" />
        </mxCell>
        <mxCell id="Tucrgae3YLSCqERrm-NA-16" value="" style="whiteSpace=wrap;html=1;aspect=fixed;" vertex="1" parent="1">
          <mxGeometry x="655" y="150" width="80" height="80" as="geometry" />
        </mxCell>
        <mxCell id="Tucrgae3YLSCqERrm-NA-17" value="" style="rounded=1;whiteSpace=wrap;html=1;" vertex="1" parent="1">
          <mxGeometry x="735" y="150" width="120" height="60" as="geometry" />
        </mxCell>
        <mxCell id="Tucrgae3YLSCqERrm-NA-18" value="" style="rounded=1;whiteSpace=wrap;html=1;" vertex="1" parent="1">
          <mxGeometry x="535" y="150" width="120" height="60" as="geometry" />
        </mxCell>
        <mxCell id="Tucrgae3YLSCqERrm-NA-19" value="" style="rounded=0;whiteSpace=wrap;html=1;rotation=60;" vertex="1" parent="1">
          <mxGeometry x="680" y="310" width="120" height="60" as="geometry" />
        </mxCell>
        <mxCell id="Tucrgae3YLSCqERrm-NA-20" value="" style="rounded=0;whiteSpace=wrap;html=1;rotation=-60;" vertex="1" parent="1">
          <mxGeometry x="590" y="310" width="120" height="60" as="geometry" />
        </mxCell>
        <mxCell id="Tucrgae3YLSCqERrm-NA-21" value="Austin Get to work&amp;nbsp;" style="shape=callout;whiteSpace=wrap;html=1;perimeter=calloutPerimeter;" vertex="1" parent="1">
          <mxGeometry x="200" y="10" width="120" height="80" as="geometry" />
        </mxCell>
        <mxCell id="Tucrgae3YLSCqERrm-NA-22" value="what&#39;s good" style="shape=callout;whiteSpace=wrap;html=1;perimeter=calloutPerimeter;" vertex="1" parent="1">
          <mxGeometry x="690" y="10" width="120" height="80" as="geometry" />
        </mxCell>
        <mxCell id="Tucrgae3YLSCqERrm-NA-23" value="" style="ellipse;whiteSpace=wrap;html=1;aspect=fixed;" vertex="1" parent="1">
          <mxGeometry x="710" y="100" width="10" height="10" as="geometry" />
        </mxCell>
        <mxCell id="Tucrgae3YLSCqERrm-NA-24" value="" style="ellipse;whiteSpace=wrap;html=1;aspect=fixed;" vertex="1" parent="1">
          <mxGeometry x="670" y="100" width="10" height="10" as="geometry" />
        </mxCell>
        <mxCell id="Tucrgae3YLSCqERrm-NA-25" value="" style="endArrow=none;html=1;entryX=0;entryY=0.5;entryDx=0;entryDy=0;" edge="1" parent="1" target="Tucrgae3YLSCqERrm-NA-23">
          <mxGeometry width="50" height="50" relative="1" as="geometry">
            <mxPoint x="679" y="105" as="sourcePoint" />
            <mxPoint x="450" y="170" as="targetPoint" />
            <Array as="points" />
          </mxGeometry>
        </mxCell>
        <mxCell id="Tucrgae3YLSCqERrm-NA-26" value="" style="edgeStyle=orthogonalEdgeStyle;rounded=0;orthogonalLoop=1;jettySize=auto;html=1;" edge="1" parent="1" source="Tucrgae3YLSCqERrm-NA-27" target="Tucrgae3YLSCqERrm-NA-29">
          <mxGeometry relative="1" as="geometry" />
        </mxCell>
        <mxCell id="Tucrgae3YLSCqERrm-NA-27" value="Enter yearly&amp;nbsp;&lt;br&gt;contribution" style="shape=parallelogram;perimeter=parallelogramPerimeter;whiteSpace=wrap;html=1;fixedSize=1;" vertex="1" parent="1">
          <mxGeometry x="400" y="245" width="120" height="60" as="geometry" />
        </mxCell>
        <mxCell id="Tucrgae3YLSCqERrm-NA-28" value="" style="edgeStyle=orthogonalEdgeStyle;rounded=0;orthogonalLoop=1;jettySize=auto;html=1;" edge="1" parent="1" source="Tucrgae3YLSCqERrm-NA-29" target="Tucrgae3YLSCqERrm-NA-31">
          <mxGeometry relative="1" as="geometry" />
        </mxCell>
        <mxCell id="Tucrgae3YLSCqERrm-NA-29" value="Enter Average&lt;br&gt;Return on &lt;br&gt;investment&lt;br&gt;as %" style="shape=parallelogram;perimeter=parallelogramPerimeter;whiteSpace=wrap;html=1;fixedSize=1;" vertex="1" parent="1">
          <mxGeometry x="400" y="350" width="120" height="60" as="geometry" />
        </mxCell>
        <mxCell id="Tucrgae3YLSCqERrm-NA-30" style="edgeStyle=orthogonalEdgeStyle;rounded=0;orthogonalLoop=1;jettySize=auto;html=1;exitX=0.5;exitY=1;exitDx=0;exitDy=0;entryX=0.5;entryY=0;entryDx=0;entryDy=0;" edge="1" parent="1" source="Tucrgae3YLSCqERrm-NA-31" target="Tucrgae3YLSCqERrm-NA-38">
          <mxGeometry relative="1" as="geometry" />
        </mxCell>
        <mxCell id="Tucrgae3YLSCqERrm-NA-31" value="Enter number of years&amp;nbsp;" style="shape=parallelogram;perimeter=parallelogramPerimeter;whiteSpace=wrap;html=1;fixedSize=1;" vertex="1" parent="1">
          <mxGeometry x="400" y="440" width="120" height="60" as="geometry" />
        </mxCell>
        <mxCell id="Tucrgae3YLSCqERrm-NA-32" value="Starting Balance&amp;nbsp;&lt;br&gt;+&lt;br&gt;yearly CONT * ARI&lt;br&gt;= INT&amp;nbsp;&lt;br&gt;+ to existing balance&amp;nbsp;&lt;br&gt;total" style="whiteSpace=wrap;html=1;" vertex="1" parent="1">
          <mxGeometry x="580" y="670" width="120" height="100" as="geometry" />
        </mxCell>
        <mxCell id="Tucrgae3YLSCqERrm-NA-33" style="edgeStyle=orthogonalEdgeStyle;rounded=0;orthogonalLoop=1;jettySize=auto;html=1;exitX=0.5;exitY=0;exitDx=0;exitDy=0;entryX=1;entryY=0.5;entryDx=0;entryDy=0;" edge="1" parent="1" source="Tucrgae3YLSCqERrm-NA-34" target="Tucrgae3YLSCqERrm-NA-46">
          <mxGeometry relative="1" as="geometry" />
        </mxCell>
        <mxCell id="Tucrgae3YLSCqERrm-NA-34" value="&amp;nbsp;existing balance&amp;nbsp;&lt;br&gt;total + yearly CONT&lt;br&gt;* ARI = INT&amp;nbsp;&lt;br&gt;+ to existing balance&lt;br&gt;total&lt;br&gt;" style="rounded=0;whiteSpace=wrap;html=1;" vertex="1" parent="1">
          <mxGeometry x="830" y="550" width="120" height="80" as="geometry" />
        </mxCell>
        <mxCell id="Tucrgae3YLSCqERrm-NA-35" style="edgeStyle=orthogonalEdgeStyle;rounded=0;orthogonalLoop=1;jettySize=auto;html=1;exitX=0.5;exitY=1;exitDx=0;exitDy=0;entryX=0.5;entryY=0;entryDx=0;entryDy=0;" edge="1" parent="1" source="Tucrgae3YLSCqERrm-NA-38" target="Tucrgae3YLSCqERrm-NA-5">
          <mxGeometry relative="1" as="geometry">
            <mxPoint x="460" y="750" as="targetPoint" />
          </mxGeometry>
        </mxCell>
        <mxCell id="Tucrgae3YLSCqERrm-NA-36" value="yes" style="edgeLabel;html=1;align=center;verticalAlign=middle;resizable=0;points=[];" vertex="1" connectable="0" parent="Tucrgae3YLSCqERrm-NA-35">
          <mxGeometry x="-0.2767" relative="1" as="geometry">
            <mxPoint as="offset" />
          </mxGeometry>
        </mxCell>
        <mxCell id="Tucrgae3YLSCqERrm-NA-37" style="edgeStyle=orthogonalEdgeStyle;rounded=0;orthogonalLoop=1;jettySize=auto;html=1;exitX=1;exitY=0.5;exitDx=0;exitDy=0;entryX=0;entryY=0.5;entryDx=0;entryDy=0;" edge="1" parent="1" source="Tucrgae3YLSCqERrm-NA-38" target="Tucrgae3YLSCqERrm-NA-43">
          <mxGeometry relative="1" as="geometry" />
        </mxCell>
        <mxCell id="Tucrgae3YLSCqERrm-NA-38" value="if years met" style="rhombus;whiteSpace=wrap;html=1;" vertex="1" parent="1">
          <mxGeometry x="420" y="570" width="80" height="80" as="geometry" />
        </mxCell>
        <mxCell id="Tucrgae3YLSCqERrm-NA-39" value="" style="edgeStyle=orthogonalEdgeStyle;rounded=0;orthogonalLoop=1;jettySize=auto;html=1;" edge="1" parent="1" source="Tucrgae3YLSCqERrm-NA-43" target="Tucrgae3YLSCqERrm-NA-32">
          <mxGeometry relative="1" as="geometry" />
        </mxCell>
        <mxCell id="Tucrgae3YLSCqERrm-NA-40" value="yes" style="edgeLabel;html=1;align=center;verticalAlign=middle;resizable=0;points=[];" vertex="1" connectable="0" parent="Tucrgae3YLSCqERrm-NA-39">
          <mxGeometry x="0.2711" y="3" relative="1" as="geometry">
            <mxPoint as="offset" />
          </mxGeometry>
        </mxCell>
        <mxCell id="Tucrgae3YLSCqERrm-NA-41" style="edgeStyle=orthogonalEdgeStyle;rounded=0;orthogonalLoop=1;jettySize=auto;html=1;exitX=1;exitY=0;exitDx=0;exitDy=0;entryX=0;entryY=0.5;entryDx=0;entryDy=0;" edge="1" parent="1" source="Tucrgae3YLSCqERrm-NA-43" target="Tucrgae3YLSCqERrm-NA-34">
          <mxGeometry relative="1" as="geometry">
            <Array as="points">
              <mxPoint x="660" y="600" />
              <mxPoint x="830" y="600" />
            </Array>
          </mxGeometry>
        </mxCell>
        <mxCell id="Tucrgae3YLSCqERrm-NA-42" value="no" style="edgeLabel;html=1;align=center;verticalAlign=middle;resizable=0;points=[];" vertex="1" connectable="0" parent="Tucrgae3YLSCqERrm-NA-41">
          <mxGeometry x="-0.3022" y="-2" relative="1" as="geometry">
            <mxPoint as="offset" />
          </mxGeometry>
        </mxCell>
        <mxCell id="Tucrgae3YLSCqERrm-NA-43" value="if 1st year&amp;nbsp;&lt;br&gt;&amp;nbsp;" style="rhombus;whiteSpace=wrap;html=1;" vertex="1" parent="1">
          <mxGeometry x="600" y="560" width="80" height="80" as="geometry" />
        </mxCell>
        <mxCell id="Tucrgae3YLSCqERrm-NA-44" style="edgeStyle=orthogonalEdgeStyle;rounded=0;orthogonalLoop=1;jettySize=auto;html=1;exitX=0.5;exitY=1;exitDx=0;exitDy=0;" edge="1" parent="1" source="Tucrgae3YLSCqERrm-NA-32">
          <mxGeometry relative="1" as="geometry">
            <mxPoint x="750" y="510" as="targetPoint" />
            <mxPoint x="690" y="840" as="sourcePoint" />
          </mxGeometry>
        </mxCell>
        <mxCell id="Tucrgae3YLSCqERrm-NA-45" style="edgeStyle=orthogonalEdgeStyle;rounded=0;orthogonalLoop=1;jettySize=auto;html=1;exitX=0;exitY=0.5;exitDx=0;exitDy=0;entryX=0.5;entryY=0;entryDx=0;entryDy=0;" edge="1" parent="1" source="Tucrgae3YLSCqERrm-NA-46" target="Tucrgae3YLSCqERrm-NA-38">
          <mxGeometry relative="1" as="geometry">
            <Array as="points">
              <mxPoint x="570" y="540" />
              <mxPoint x="460" y="540" />
            </Array>
          </mxGeometry>
        </mxCell>
        <mxCell id="Tucrgae3YLSCqERrm-NA-46" value="add 1 to years processed&amp;nbsp; print&lt;br&gt;yearly info&amp;nbsp;" style="whiteSpace=wrap;html=1;" vertex="1" parent="1">
          <mxGeometry x="570" y="480" width="120" height="60" as="geometry" />
        </mxCell>
        <mxCell id="Tucrgae3YLSCqERrm-NA-47" value="Text" style="text;html=1;align=center;verticalAlign=middle;resizable=0;points=[];autosize=1;" vertex="1" parent="1">
          <mxGeometry x="800" y="940" width="40" height="20" as="geometry" />
        </mxCell>
      </root>
    </mxGraphModel>
  </diagram>
</mxfile>
